<svg width="1400" height="1040" viewBox="0 0 1400 1040" fill="none" xmlns="http://www.w3.org/2000/svg">
  <rect width="1400" height="1040" rx="40" fill="#F3E9DC"/>
  <circle cx="1118" cy="170" r="124" fill="#E4C38F"/>
  <circle cx="230" cy="178" r="92" fill="#D8B786" opacity="0.85"/>
  <path d="M0 820C120 746 246 706 384 720C532 734 628 806 786 806C970 806 1110 716 1400 640V1040H0V820Z" fill="#D6C0A0"/>
  <path d="M188 454L480 214L776 402L1038 176L1218 340V742H188V454Z" fill="#FBF6EE" stroke="#6B4829" stroke-width="10" stroke-linejoin="round"/>
  <path d="M144 476L476 172L780 362L1044 132L1260 320" stroke="#AF773B" stroke-width="14" stroke-linecap="round" stroke-linejoin="round"/>
  <rect x="286" y="486" width="110" height="132" rx="16" fill="#E5CFAD"/>
  <rect x="436" y="486" width="110" height="132" rx="16" fill="#E5CFAD"/>
  <rect x="586" y="430" width="130" height="188" rx="18" fill="#D8B682"/>
  <rect x="760" y="486" width="110" height="132" rx="16" fill="#E5CFAD"/>
  <rect x="910" y="430" width="132" height="242" rx="18" fill="#D1AF7C"/>
  <rect x="1090" y="470" width="62" height="202" rx="18" fill="#E5CFAD"/>
  <path d="M188 742H1218V784H188V742Z" fill="#C89453"/>
  <path d="M310 362H1134" stroke="#C18A49" stroke-width="10" stroke-linecap="round"/>
  <path d="M468 214V742" stroke="#7A5433" stroke-width="10" stroke-linecap="round" opacity="0.55"/>
  <path d="M1038 176V742" stroke="#7A5433" stroke-width="10" stroke-linecap="round" opacity="0.55"/>
  <path d="M118 794H1264" stroke="#F6EFE5" stroke-width="8" stroke-linecap="round" opacity="0.8"/>
</svg>
