<svg width="1200" height="900" viewBox="0 0 1200 900" fill="none" xmlns="http://www.w3.org/2000/svg">
  <rect width="1200" height="900" rx="42" fill="#EEE5D7"/>
  <circle cx="960" cy="150" r="120" fill="#E7D1AE"/>
  <circle cx="220" cy="180" r="86" fill="#D9BA87" opacity="0.7"/>
  <path d="M90 680C220 580 360 540 520 560C640 575 720 620 855 620C980 620 1070 572 1140 520V900H90V680Z" fill="#D9C4A4"/>
  <rect x="212" y="308" width="270" height="374" rx="22" fill="#F8F2E8" stroke="#7E5A36" stroke-width="8"/>
  <rect x="258" y="214" width="178" height="118" rx="18" fill="#B88944"/>
  <rect x="278" y="372" width="58" height="86" rx="10" fill="#DBC298"/>
  <rect x="356" y="372" width="82" height="132" rx="10" fill="#DBC298"/>
  <rect x="278" y="480" width="58" height="86" rx="10" fill="#DBC298"/>
  <rect x="356" y="528" width="82" height="114" rx="10" fill="#DBC298"/>
  <path d="M584 290H1036V668H584V290Z" fill="#F9F5EE" stroke="#684225" stroke-width="8"/>
  <path d="M646 230H974V312H646V230Z" fill="#C89650"/>
  <rect x="628" y="350" width="112" height="124" rx="14" fill="#E2CDA8"/>
  <rect x="768" y="350" width="112" height="124" rx="14" fill="#E2CDA8"/>
  <rect x="908" y="350" width="82" height="252" rx="14" fill="#D6B883"/>
  <path d="M720 668V530H900V668" fill="#AF7A3E"/>
  <path d="M584 312L810 130L1036 312" stroke="#684225" stroke-width="12" stroke-linecap="round" stroke-linejoin="round"/>
  <circle cx="810" cy="164" r="18" fill="#F5E1B5"/>
  <path d="M418 242L810 130L954 210" stroke="#A56F35" stroke-width="10" stroke-linecap="round"/>
</svg>
