<svg width="900" height="620" viewBox="0 0 900 620" fill="none" xmlns="http://www.w3.org/2000/svg">
  <rect width="900" height="620" fill="#F8F5F3"/>
  <rect y="470" width="900" height="150" fill="#D8E2D1"/>
  <rect x="156" y="126" width="588" height="334" rx="14" fill="#C8B09C"/>
  <rect x="210" y="76" width="480" height="70" rx="18" fill="#8E1825"/>
  <rect x="190" y="168" width="88" height="254" fill="#EFE6DE"/>
  <rect x="298" y="168" width="88" height="254" fill="#EFE6DE"/>
  <rect x="406" y="168" width="88" height="254" fill="#EFE6DE"/>
  <rect x="514" y="168" width="88" height="254" fill="#EFE6DE"/>
  <rect x="622" y="168" width="88" height="254" fill="#EFE6DE"/>
  <rect x="212" y="192" width="44" height="76" fill="#657586"/>
  <rect x="212" y="292" width="44" height="76" fill="#657586"/>
  <rect x="320" y="192" width="44" height="76" fill="#657586"/>
  <rect x="320" y="292" width="44" height="76" fill="#657586"/>
  <rect x="428" y="192" width="44" height="76" fill="#657586"/>
  <rect x="428" y="292" width="44" height="76" fill="#657586"/>
  <rect x="536" y="192" width="44" height="76" fill="#657586"/>
  <rect x="536" y="292" width="44" height="76" fill="#657586"/>
  <rect x="644" y="192" width="44" height="76" fill="#657586"/>
  <rect x="644" y="292" width="44" height="76" fill="#657586"/>
  <circle cx="786" cy="108" r="62" fill="#F1D4D8"/>
</svg>
