<svg width="1200" height="900" viewBox="0 0 1200 900" fill="none" xmlns="http://www.w3.org/2000/svg">
  <rect width="1200" height="900" rx="48" fill="#FFF8F8"/>
  <circle cx="938" cy="200" r="170" fill="#F9DEE1"/>
  <circle cx="868" cy="726" r="214" fill="#FCECEE"/>
  <path d="M210 678L428 430L595 520L786 304L1006 678H210Z" fill="#AA1524"/>
  <path d="M350 678L515 480L645 566L818 376L952 678H350Z" fill="#D43D4B"/>
  <rect x="260" y="638" width="720" height="42" rx="21" fill="#7D101C"/>
  <rect x="292" y="228" width="250" height="134" rx="30" fill="#FFF2F4"/>
  <rect x="324" y="264" width="100" height="18" rx="9" fill="#D43D4B"/>
  <rect x="324" y="304" width="170" height="18" rx="9" fill="#F7CBD1"/>
  <rect x="780" y="148" width="204" height="204" rx="30" fill="#FFF2F4"/>
  <rect x="820" y="188" width="124" height="124" rx="20" fill="#B01828"/>
  <path d="M850 272H914" stroke="#FFF2F4" stroke-width="16" stroke-linecap="round"/>
  <path d="M882 240V304" stroke="#FFF2F4" stroke-width="16" stroke-linecap="round"/>
</svg>
