<svg width="900" height="620" viewBox="0 0 900 620" fill="none" xmlns="http://www.w3.org/2000/svg">
  <rect width="900" height="620" fill="#FBF7F5"/>
  <rect y="454" width="900" height="166" fill="#DDE7D9"/>
  <rect x="202" y="124" width="494" height="352" rx="12" fill="#CBB39B"/>
  <rect x="232" y="92" width="434" height="58" rx="12" fill="#B08464"/>
  <rect x="266" y="170" width="56" height="246" fill="#EDE8E2"/>
  <rect x="346" y="170" width="56" height="246" fill="#EDE8E2"/>
  <rect x="426" y="170" width="56" height="246" fill="#EDE8E2"/>
  <rect x="506" y="170" width="56" height="246" fill="#EDE8E2"/>
  <rect x="586" y="170" width="56" height="246" fill="#EDE8E2"/>
  <rect x="244" y="190" width="32" height="86" fill="#6D7C8C"/>
  <rect x="290" y="190" width="32" height="86" fill="#6D7C8C"/>
  <rect x="324" y="190" width="32" height="86" fill="#6D7C8C"/>
  <rect x="370" y="190" width="32" height="86" fill="#6D7C8C"/>
  <rect x="404" y="190" width="32" height="86" fill="#6D7C8C"/>
  <rect x="450" y="190" width="32" height="86" fill="#6D7C8C"/>
  <rect x="484" y="190" width="32" height="86" fill="#6D7C8C"/>
  <rect x="530" y="190" width="32" height="86" fill="#6D7C8C"/>
  <rect x="564" y="190" width="32" height="86" fill="#6D7C8C"/>
  <rect x="610" y="190" width="32" height="86" fill="#6D7C8C"/>
  <rect x="244" y="302" width="32" height="86" fill="#6D7C8C"/>
  <rect x="290" y="302" width="32" height="86" fill="#6D7C8C"/>
  <rect x="324" y="302" width="32" height="86" fill="#6D7C8C"/>
  <rect x="370" y="302" width="32" height="86" fill="#6D7C8C"/>
  <rect x="404" y="302" width="32" height="86" fill="#6D7C8C"/>
  <rect x="450" y="302" width="32" height="86" fill="#6D7C8C"/>
  <rect x="484" y="302" width="32" height="86" fill="#6D7C8C"/>
  <rect x="530" y="302" width="32" height="86" fill="#6D7C8C"/>
  <rect x="564" y="302" width="32" height="86" fill="#6D7C8C"/>
  <rect x="610" y="302" width="32" height="86" fill="#6D7C8C"/>
  <circle cx="118" cy="120" r="54" fill="#F4D8DE"/>
</svg>
