<svg width="800" height="600" viewBox="0 0 800 600" fill="none" xmlns="http://www.w3.org/2000/svg">
  <rect width="800" height="600" rx="28" fill="#F2E9DC"/>
  <circle cx="134" cy="116" r="62" fill="#D8B680"/>
  <rect x="112" y="170" width="256" height="286" rx="24" fill="#E2D0B6" stroke="#76533A" stroke-width="8"/>
  <rect x="438" y="128" width="252" height="328" rx="24" fill="#FFF8EE" stroke="#76533A" stroke-width="8"/>
  <path d="M392 142L414 164L338 240L316 218L392 142Z" fill="#BA7A3A"/>
  <path d="M316 218L338 240L290 288L252 270L274 232L316 218Z" fill="#8C5B30"/>
  <rect x="164" y="228" width="74" height="104" rx="14" fill="#CDA779"/>
  <rect x="260" y="228" width="62" height="168" rx="14" fill="#CDA779"/>
  <rect x="490" y="184" width="64" height="64" rx="14" fill="#E3CFB0"/>
  <rect x="576" y="184" width="64" height="64" rx="14" fill="#E3CFB0"/>
  <path d="M504 392H626" stroke="#B67A3A" stroke-width="14" stroke-linecap="round"/>
  <path d="M540 350H590V456H540V350Z" fill="#D1B387"/>
</svg>
