<svg width="800" height="600" viewBox="0 0 800 600" fill="none" xmlns="http://www.w3.org/2000/svg">
  <rect width="800" height="600" rx="28" fill="#EFE4D4"/>
  <circle cx="646" cy="110" r="66" fill="#E3BB78"/>
  <path d="M0 476C94 434 174 414 286 434C386 452 454 504 570 504C654 504 724 484 800 444V600H0V476Z" fill="#D3BE9E"/>
  <rect x="164" y="254" width="220" height="198" rx="22" fill="#FFF8EE" stroke="#6A4728" stroke-width="8"/>
  <rect x="426" y="212" width="204" height="240" rx="22" fill="#F8F0E3" stroke="#6A4728" stroke-width="8"/>
  <path d="M140 268H654" stroke="#B77E43" stroke-width="12" stroke-linecap="round"/>
  <path d="M262 154V452" stroke="#8B5D30" stroke-width="14" stroke-linecap="round"/>
  <path d="M530 154V452" stroke="#8B5D30" stroke-width="14" stroke-linecap="round"/>
  <path d="M176 186H348" stroke="#8B5D30" stroke-width="14" stroke-linecap="round"/>
  <path d="M438 186H620" stroke="#8B5D30" stroke-width="14" stroke-linecap="round"/>
  <rect x="208" y="306" width="56" height="56" rx="10" fill="#DEC69F"/>
  <rect x="284" y="306" width="56" height="56" rx="10" fill="#DEC69F"/>
  <rect x="470" y="264" width="44" height="140" rx="12" fill="#DAB886"/>
  <rect x="536" y="264" width="44" height="140" rx="12" fill="#DAB886"/>
</svg>
