<svg width="1200" height="900" viewBox="0 0 1200 900" fill="none" xmlns="http://www.w3.org/2000/svg">
  <rect width="1200" height="900" rx="48" fill="#FFF8F8"/>
  <circle cx="1000" cy="152" r="164" fill="#FADDE1"/>
  <circle cx="250" cy="750" r="220" fill="#FCEBED"/>
  <rect x="224" y="198" width="752" height="468" rx="42" fill="#B01828"/>
  <rect x="274" y="248" width="652" height="368" rx="26" fill="#FFF4F5"/>
  <rect x="314" y="288" width="188" height="288" rx="20" fill="#FAD4D9"/>
  <rect x="534" y="288" width="352" height="44" rx="22" fill="#D43D4B"/>
  <rect x="534" y="358" width="290" height="24" rx="12" fill="#F7CBD1"/>
  <rect x="534" y="404" width="314" height="24" rx="12" fill="#FCE8EB"/>
  <rect x="534" y="462" width="150" height="114" rx="18" fill="#B01828"/>
  <rect x="706" y="462" width="180" height="114" rx="18" fill="#FAD4D9"/>
  <path d="M360 350L388 378L446 320" stroke="#B01828" stroke-width="18" stroke-linecap="round" stroke-linejoin="round"/>
  <path d="M360 438L388 466L446 408" stroke="#B01828" stroke-width="18" stroke-linecap="round" stroke-linejoin="round"/>
  <path d="M360 526L388 554L446 496" stroke="#B01828" stroke-width="18" stroke-linecap="round" stroke-linejoin="round"/>
</svg>
