<svg width="800" height="600" viewBox="0 0 800 600" fill="none" xmlns="http://www.w3.org/2000/svg">
  <rect width="800" height="600" rx="28" fill="#F5EEE3"/>
  <rect x="92" y="118" width="616" height="356" rx="28" fill="#FFF9F1" stroke="#6E4B2F" stroke-width="8"/>
  <rect x="132" y="160" width="252" height="184" rx="18" fill="#E8D4B5"/>
  <rect x="422" y="160" width="240" height="110" rx="18" fill="#DEC29A"/>
  <rect x="458" y="294" width="170" height="120" rx="20" fill="#C28A47"/>
  <path d="M188 382C188 340 222 306 264 306C306 306 340 340 340 382V414H188V382Z" fill="#B77534"/>
  <rect x="168" y="414" width="192" height="34" rx="17" fill="#D3B182"/>
  <rect x="230" y="236" width="56" height="56" rx="16" fill="#FFF3DE"/>
  <path d="M528 110V60" stroke="#BE8C4E" stroke-width="12" stroke-linecap="round"/>
  <path d="M494 102L528 128L562 102" stroke="#BE8C4E" stroke-width="10" stroke-linecap="round" stroke-linejoin="round"/>
</svg>
